<svg width="36" height="37" viewBox="0 0 36 37" fill="none" xmlns="http://www.w3.org/2000/svg">
<path fill-rule="evenodd" clip-rule="evenodd" d="M18 37C27.9411 37 36 28.7173 36 18.5C36 8.28273 27.9411 0 18 0C8.05887 0 0 8.28273 0 18.5C0 28.7173 8.05887 37 18 37ZM29.7192 10.4262L20.0818 20.3313C19.5704 20.8569 18.8857 21.1208 18 21.1208C17.1143 21.1208 16.4296 20.8569 15.9182 20.3313L6.28076 10.4262C6.54517 10.2665 6.85319 10.175 7.182 10.175H28.818C29.1468 10.175 29.4548 10.2665 29.7192 10.4262ZM5.4 24.9935C5.4 25.3315 5.48906 25.648 5.64437 25.9198L12.8636 18.5L5.64437 11.0802C5.48906 11.352 5.4 11.6686 5.4 12.0065V24.9935ZM29.7192 26.5738C29.4548 26.7335 29.1468 26.825 28.818 26.825H7.182C6.85319 26.825 6.54517 26.7335 6.28076 26.5738L13.5 19.1541L15.2818 20.9854C15.9704 21.6931 16.8857 22.0458 18 22.0458C19.1143 22.0458 20.0296 21.6931 20.7182 20.9854L22.5 19.1541L29.7192 26.5738ZM23.1364 18.5L30.3556 25.9198C30.5109 25.648 30.6 25.3315 30.6 24.9935V12.0065C30.6 11.6686 30.5109 11.352 30.3556 11.0802L23.1364 18.5Z" fill="#D87B91"/>
</svg>
