<svg width="34" height="34" viewBox="0 0 34 34" fill="none" xmlns="http://www.w3.org/2000/svg">
<path fill-rule="evenodd" clip-rule="evenodd" d="M2.41333 6.10352e-05C1.08048 6.10352e-05 0 1.08054 0 2.41339V31.5866C0 32.9195 1.08049 34 2.41333 34H31.5867C32.9195 34 34 32.9195 34 31.5866V2.41339C34 1.08055 32.9195 6.10352e-05 31.5867 6.10352e-05H2.41333ZM7.63144 10.5588C9.2604 10.5588 10.5809 9.23824 10.5809 7.60928C10.5809 5.98032 9.2604 4.65979 7.63144 4.65979C6.00248 4.65979 4.68195 5.98032 4.68195 7.60928C4.68195 9.23824 6.00248 10.5588 7.63144 10.5588ZM13.2822 12.7385H18.1704V14.9779C18.1704 14.9779 19.4969 12.3249 23.1061 12.3249C26.3257 12.3249 28.9928 13.9109 28.9928 18.7453V28.9396H23.9271V19.9806C23.9271 17.1287 22.4046 16.8151 21.2444 16.8151C18.8367 16.8151 18.4245 18.8919 18.4245 20.3526V28.9396H13.2822V12.7385ZM10.2026 12.7386H5.06029V28.9396H10.2026V12.7386Z" fill="#D87B91"/>
</svg>
