<svg width="32" height="32" viewBox="0 0 32 32" fill="none" xmlns="http://www.w3.org/2000/svg">
<path d="M25.4646 14.1844C20.3071 11.1215 11.7998 10.8399 6.87643 12.3343C6.08582 12.5741 5.24974 12.1278 5.01016 11.3372C4.77057 10.5462 5.2165 9.7107 6.00768 9.47034C11.6594 7.75463 21.0548 8.08612 26.9921 11.6106C27.7033 12.0326 27.9365 12.9511 27.5151 13.661C27.0932 14.3722 26.174 14.6066 25.4646 14.1844ZM25.2957 18.7209C24.9338 19.308 24.1662 19.4922 23.5798 19.1317C19.28 16.4887 12.7234 15.7232 7.63646 17.2671C6.97673 17.4666 6.27994 17.0946 6.07971 16.4362C5.88081 15.7765 6.253 15.081 6.91139 14.8804C12.7227 13.1171 19.9468 13.9711 24.8853 17.0059C25.4717 17.367 25.6562 18.1353 25.2957 18.7209ZM23.3379 23.0776C23.0504 23.5491 22.4365 23.6968 21.9667 23.4095C18.2093 21.1131 13.4802 20.5946 7.91082 21.8667C7.37414 21.9897 6.83936 21.6534 6.71689 21.1168C6.59404 20.5803 6.92897 20.0453 7.46699 19.9228C13.5616 18.5296 18.7898 19.1292 23.007 21.7062C23.4772 21.9933 23.6253 22.6076 23.3379 23.0776ZM16.0001 9.15527e-05C7.16359 9.15527e-05 0 7.16349 0 15.9998C0 24.8371 7.16359 31.9999 16.0001 31.9999C24.8368 31.9999 32 24.8371 32 15.9998C32 7.16349 24.8368 9.15527e-05 16.0001 9.15527e-05Z" fill="#D87B91"/>
</svg>
